<svg width="50" height="50" viewBox="0 0 50 50" fill="none" xmlns="http://www.w3.org/2000/svg">
<path d="M12.4001 6.19998V12.4H6.2001V6.19998H12.4001ZM3.1001 3.09998V15.5H15.5001V3.09998H3.1001ZM27.9001 10.85V17.05H21.7001V10.85H27.9001ZM18.6001 7.74998V20.15H31.0001V7.74998H18.6001ZM12.4001 24.8V31H6.2001V24.8H12.4001ZM3.1001 21.7V34.1H15.5001V21.7H3.1001Z" fill="#2B2530"/>
<path d="M34.1 15.5V24.8H24.8V34.1H15.5V46.5H46.5V15.5H34.1ZM27.9 27.9H34.1V34.1H27.9V27.9ZM24.8 43.4H18.6V37.2H24.8V43.4ZM34.1 43.4H27.9V37.2H34.1V43.4ZM43.4 43.4H37.2V37.2H43.4V43.4ZM43.4 34.1H37.2V27.9H43.4V34.1ZM37.2 24.8V18.6H43.4V24.8H37.2Z" fill="#2B2530"/>
</svg>
