<svg width="946" height="536" viewBox="0 0 946 536" fill="none" xmlns="http://www.w3.org/2000/svg">
<path d="M118.621 25.2444C118.621 11.3023 129.923 0 143.865 0H802.876C816.818 0 828.121 11.3023 828.121 25.2444V510.202C828.121 524.144 816.818 535.447 802.876 535.447H143.865C129.923 535.447 118.621 524.144 118.621 510.202V25.2444Z" fill="url(#paint0_linear_18_315)"/>
<path fill-rule="evenodd" clip-rule="evenodd" d="M802.505 2.6573H143.494C131.02 2.6573 120.907 12.7699 120.907 25.2444V510.202C120.907 522.677 131.02 532.789 143.494 532.789H802.505C814.98 532.789 825.092 522.677 825.092 510.202V25.2444C825.092 12.7699 814.98 2.6573 802.505 2.6573ZM143.494 0C129.552 0 118.25 11.3023 118.25 25.2444V510.202C118.25 524.144 129.552 535.447 143.494 535.447H802.505C816.447 535.447 827.75 524.144 827.75 510.202V25.2444C827.75 11.3023 816.447 0 802.505 0H143.494Z" fill="url(#paint1_linear_18_315)"/>
<path d="M0 150.138C0 141.332 7.13829 134.194 15.9438 134.194H271.045C279.85 134.194 286.989 141.332 286.989 150.138V314.89C286.989 323.696 279.85 330.834 271.045 330.834H15.9438C7.1383 330.834 0 323.696 0 314.89V150.138Z" fill="url(#paint2_linear_18_315)"/>
<path fill-rule="evenodd" clip-rule="evenodd" d="M271.045 136.851H15.9438C8.60588 136.851 2.6573 142.8 2.6573 150.138V314.89C2.6573 322.228 8.60588 328.177 15.9438 328.177H271.045C278.383 328.177 284.331 322.228 284.331 314.89V150.138C284.331 142.8 278.383 136.851 271.045 136.851ZM15.9438 134.194C7.13829 134.194 0 141.332 0 150.138V314.89C0 323.696 7.1383 330.834 15.9438 330.834H271.045C279.85 330.834 286.989 323.696 286.989 314.89V150.138C286.989 141.332 279.85 134.194 271.045 134.194H15.9438Z" fill="url(#paint3_linear_18_315)"/>
<path d="M31.8879 186.012C31.8879 181.609 35.4571 178.04 39.8598 178.04H114.264C118.667 178.04 122.236 181.609 122.236 186.012V271.045C122.236 275.448 118.667 279.017 114.264 279.017H39.8599C35.4571 279.017 31.8879 275.448 31.8879 271.045V186.012Z" fill="white" fill-opacity="0.17"/>
<path d="M139.507 185.347C139.507 181.312 142.778 178.04 146.814 178.04H241.148C245.184 178.04 248.456 181.312 248.456 185.347V185.347C248.456 189.383 245.184 192.655 241.148 192.655H146.814C142.778 192.655 139.507 189.383 139.507 185.347V185.347Z" fill="white" fill-opacity="0.6"/>
<path d="M139.507 213.249C139.507 209.213 142.778 205.941 146.814 205.941H241.148C245.184 205.941 248.456 209.213 248.456 213.249V213.249C248.456 217.285 245.184 220.556 241.148 220.556H146.814C142.778 220.556 139.507 217.285 139.507 213.249V213.249Z" fill="white" fill-opacity="0.26"/>
<path d="M139.507 259.751C139.507 246.176 150.511 235.171 164.087 235.171H165.415C178.99 235.171 189.995 246.176 189.995 259.751V259.751C189.995 273.326 178.99 284.331 165.415 284.331H164.087C150.511 284.331 139.507 273.326 139.507 259.751V259.751Z" fill="#767799"/>
<path d="M134.196 49.8248C134.196 34.782 146.39 22.5874 161.433 22.5874H773.941C788.984 22.5874 801.179 34.782 801.179 49.8248V49.8248C801.179 64.8675 788.984 77.0621 773.941 77.0621H161.433C146.39 77.0621 134.196 64.8675 134.196 49.8248V49.8248Z" fill="url(#paint4_linear_18_315)"/>
<path d="M690.899 296.29C690.899 287.484 698.037 280.346 706.843 280.346H930.056C938.862 280.346 946 287.484 946 296.29V461.042C946 469.848 938.862 476.986 930.056 476.986H706.843C698.037 476.986 690.899 469.848 690.899 461.042V296.29Z" fill="url(#paint5_linear_18_315)"/>
<path fill-rule="evenodd" clip-rule="evenodd" d="M930.056 283.003H706.843C699.505 283.003 693.556 288.952 693.556 296.29V461.042C693.556 468.38 699.505 474.329 706.843 474.329H930.056C937.394 474.329 943.343 468.38 943.343 461.042V296.29C943.343 288.952 937.394 283.003 930.056 283.003ZM706.843 280.346C698.037 280.346 690.899 287.484 690.899 296.29V461.042C690.899 469.848 698.037 476.986 706.843 476.986H930.056C938.862 476.986 946 469.848 946 461.042V296.29C946 287.484 938.862 280.346 930.056 280.346H706.843Z" fill="url(#paint6_linear_18_315)"/>
<path d="M714.519 312.233C714.519 309.297 716.899 306.918 719.834 306.918H917.065C920 306.918 922.379 309.297 922.379 312.233V312.233C922.379 315.168 920 317.547 917.065 317.547H719.834C716.899 317.547 714.519 315.168 714.519 312.233V312.233Z" fill="url(#paint7_linear_18_315)"/>
<path d="M714.519 338.806C714.519 335.871 716.899 333.492 719.834 333.492H783.609C786.544 333.492 788.924 335.871 788.924 338.806V338.806C788.924 341.741 786.544 344.121 783.609 344.121H719.834C716.899 344.121 714.519 341.741 714.519 338.806V338.806Z" fill="url(#paint8_linear_18_315)"/>
<path d="M798.372 338.806C798.372 335.871 800.751 333.492 803.686 333.492H828.488C831.423 333.492 833.803 335.871 833.803 338.806V338.806C833.803 341.741 831.423 344.121 828.488 344.121H803.686C800.751 344.121 798.372 341.741 798.372 338.806V338.806Z" fill="url(#paint9_linear_18_315)"/>
<path d="M714.519 445.099C714.519 442.164 716.899 439.784 719.834 439.784H783.609C786.544 439.784 788.924 442.164 788.924 445.099V445.099C788.924 448.034 786.544 450.413 783.609 450.413H719.834C716.899 450.413 714.519 448.034 714.519 445.099V445.099Z" fill="url(#paint10_linear_18_315)"/>
<path d="M798.372 445.099C798.372 442.164 800.751 439.784 803.686 439.784H828.488C831.423 439.784 833.803 442.164 833.803 445.099V445.099C833.803 448.034 831.423 450.413 828.488 450.413H803.686C800.751 450.413 798.372 448.034 798.372 445.099V445.099Z" fill="url(#paint11_linear_18_315)"/>
<path d="M757.037 391.953C757.037 389.017 759.416 386.638 762.351 386.638H780.067C783.002 386.638 785.381 389.017 785.381 391.953V391.953C785.381 394.888 783.002 397.267 780.067 397.267H762.351C759.416 397.267 757.037 394.888 757.037 391.953V391.953Z" fill="url(#paint12_linear_18_315)"/>
<path d="M796.011 391.953C796.011 389.017 798.39 386.638 801.326 386.638H876.911C879.846 386.638 882.226 389.017 882.226 391.953V391.953C882.226 394.888 879.846 397.267 876.911 397.267H801.326C798.39 397.267 796.011 394.888 796.011 391.953V391.953Z" fill="url(#paint13_linear_18_315)"/>
<path d="M714.519 391.953C714.519 389.017 716.899 386.638 719.834 386.638H744.635C747.571 386.638 749.95 389.017 749.95 391.953V391.953C749.95 394.888 747.571 397.267 744.635 397.267H719.834C716.899 397.267 714.519 394.888 714.519 391.953V391.953Z" fill="url(#paint14_linear_18_315)"/>
<path d="M714.519 365.379C714.519 362.443 716.899 360.064 719.834 360.064H806.049C808.984 360.064 811.363 362.443 811.363 365.379V365.379C811.363 368.314 808.984 370.693 806.049 370.693H719.834C716.899 370.693 714.519 368.314 714.519 365.379V365.379Z" fill="url(#paint15_linear_18_315)"/>
<path d="M819.63 365.379C819.63 362.443 822.01 360.064 824.945 360.064H865.1C868.035 360.064 870.414 362.443 870.414 365.379V365.379C870.414 368.314 868.035 370.693 865.1 370.693H824.945C822.01 370.693 819.63 368.314 819.63 365.379V365.379Z" fill="url(#paint16_linear_18_315)"/>
<path d="M714.519 418.525C714.519 415.59 716.899 413.21 719.834 413.21H806.049C808.984 413.21 811.363 415.59 811.363 418.525V418.525C811.363 421.46 808.984 423.84 806.049 423.84H719.834C716.899 423.84 714.519 421.46 714.519 418.525V418.525Z" fill="url(#paint17_linear_18_315)"/>
<path d="M182.888 50.124C182.888 55.1556 178.807 59.2346 173.774 59.2346C168.741 59.2346 164.661 55.1556 164.661 50.124C164.661 45.0924 168.741 41.0134 173.774 41.0134C178.807 41.0134 182.888 45.0924 182.888 50.124Z" fill="#FED280"/>
<path d="M214.784 50.124C214.784 55.1556 210.704 59.2346 205.671 59.2346C200.638 59.2346 196.558 55.1556 196.558 50.124C196.558 45.0924 200.638 41.0134 205.671 41.0134C210.704 41.0134 214.784 45.0924 214.784 50.124Z" fill="#8CFEE3" fill-opacity="0.9"/>
<path d="M246.684 50.124C246.684 55.1556 242.604 59.2346 237.571 59.2346C232.538 59.2346 228.458 55.1556 228.458 50.124C228.458 45.0924 232.538 41.0134 237.571 41.0134C242.604 41.0134 246.684 45.0924 246.684 50.124Z" fill="#FF8DA9" fill-opacity="0.9"/>
<path d="M72.5956 228.299C69.5391 224.312 63.4495 224.577 60.7504 228.814L45.4605 252.816C42.3921 257.633 45.8521 263.94 51.5633 263.94H102.586C108.494 263.94 111.912 257.242 108.445 252.458L100.105 240.949C97.8667 237.86 93.3627 237.591 90.773 240.391V240.391C88.2284 243.143 83.819 242.939 81.5388 239.965L72.5956 228.299Z" fill="white"/>
<path d="M105.986 207.625C105.986 212.395 102.119 216.262 97.3494 216.262C92.5797 216.262 88.7131 212.395 88.7131 207.625C88.7131 202.856 92.5797 198.989 97.3494 198.989C102.119 198.989 105.986 202.856 105.986 207.625Z" fill="#C4C5DC"/>
<path fill-rule="evenodd" clip-rule="evenodd" d="M285.327 227.199C285.327 226.282 286.07 225.539 286.988 225.539H484.981V264.652C484.981 265.569 484.237 266.312 483.32 266.312C482.403 266.312 481.659 265.569 481.659 264.652V228.86H286.988C286.07 228.86 285.327 228.117 285.327 227.199Z" fill="url(#paint18_linear_18_315)"/>
<path fill-rule="evenodd" clip-rule="evenodd" d="M692.56 378.665C692.56 379.583 691.816 380.326 690.899 380.326L482.277 380.326L482.277 342.696C482.277 341.779 483.02 341.035 483.937 341.035C484.855 341.035 485.598 341.779 485.598 342.696L485.598 377.005L690.899 377.005C691.816 377.005 692.56 377.748 692.56 378.665Z" fill="url(#paint19_linear_18_315)"/>
<g filter="url(#filter0_d_18_315)">
<path fill-rule="evenodd" clip-rule="evenodd" d="M480.496 295.891C480.488 296.212 480.545 296.366 480.839 296.366H487.916C489.198 296.461 490.344 296.781 491.314 297.404C491.987 297.836 492.478 298.35 492.849 298.919C493.507 299.93 493.878 301.388 494.08 302.564C494.166 303.073 494.207 303.549 494.114 303.769C494.07 303.873 494.005 303.943 493.917 303.976C493.431 304.161 492.916 303.527 492.642 303.223C491.337 301.778 489.44 301.18 487.204 301.067H480.734C480.502 301.105 480.42 301.267 480.444 301.517V303.243C480.43 303.816 480.125 304.011 479.519 303.818L473.949 299.678L473.401 299.271L473.261 299.167C472.813 298.785 472.997 298.438 473.399 298.139L473.824 297.822L479.162 293.843C479.814 293.357 480.496 293.227 480.496 294.274V295.891ZM486.695 313.496C486.703 313.175 486.646 313.021 486.352 313.021H479.275C477.994 312.925 476.847 312.606 475.878 311.983C475.2 311.548 474.707 311.031 474.336 310.457C473.664 309.419 473.226 307.73 473.065 306.517C473.014 306.13 473.004 305.793 473.078 305.618C473.121 305.514 473.186 305.444 473.275 305.41C473.761 305.226 474.275 305.86 474.55 306.164C475.855 307.609 477.752 308.207 479.988 308.32H486.458C486.689 308.282 486.772 308.12 486.748 307.869V306.144C486.762 305.571 487.067 305.376 487.673 305.569L493.243 309.709L493.791 310.116L493.931 310.22C494.379 310.601 494.195 310.949 493.793 311.248L493.368 311.565L488.03 315.544C487.378 316.03 486.696 316.16 486.696 315.113L486.695 313.496Z" fill="#88F1DB"/>
</g>
<circle cx="483.38" cy="303.965" r="27.8462" stroke="white" stroke-width="3.61788"/>
<path d="M368.037 227.199C368.037 234.537 362.089 240.486 354.751 240.486C347.413 240.486 341.464 234.537 341.464 227.199C341.464 219.861 347.413 213.913 354.751 213.913C362.089 213.913 368.037 219.861 368.037 227.199Z" fill="#383A68"/>
<path fill-rule="evenodd" clip-rule="evenodd" d="M354.751 237.828C360.621 237.828 365.38 233.069 365.38 227.199C365.38 221.329 360.621 216.57 354.751 216.57C348.88 216.57 344.121 221.329 344.121 227.199C344.121 233.069 348.88 237.828 354.751 237.828ZM354.751 240.486C362.089 240.486 368.037 234.537 368.037 227.199C368.037 219.861 362.089 213.913 354.751 213.913C347.413 213.913 341.464 219.861 341.464 227.199C341.464 234.537 347.413 240.486 354.751 240.486Z" fill="#63648A"/>
<path d="M657.68 378.666C657.68 386.004 651.732 391.953 644.394 391.953C637.056 391.953 631.107 386.004 631.107 378.666C631.107 371.328 637.056 365.38 644.394 365.38C651.732 365.38 657.68 371.328 657.68 378.666Z" fill="#383A68"/>
<path fill-rule="evenodd" clip-rule="evenodd" d="M644.394 389.296C650.264 389.296 655.023 384.537 655.023 378.666C655.023 372.796 650.264 368.037 644.394 368.037C638.524 368.037 633.765 372.796 633.765 378.666C633.765 384.537 638.524 389.296 644.394 389.296ZM644.394 391.953C651.732 391.953 657.68 386.004 657.68 378.666C657.68 371.328 651.732 365.38 644.394 365.38C637.056 365.38 631.107 371.328 631.107 378.666C631.107 386.004 637.056 391.953 644.394 391.953Z" fill="#63648A"/>
<path d="M199.298 245.14C199.298 239.634 203.763 235.171 209.27 235.171H237.941C243.448 235.171 247.913 239.634 247.913 245.14V273.803C247.913 279.309 243.448 283.773 237.941 283.773H209.27C203.763 283.773 199.298 279.309 199.298 273.803V245.14Z" fill="#767799"/>
<path fill-rule="evenodd" clip-rule="evenodd" d="M228.442 273.411H219.459V269.672H228.442V273.411Z" fill="white"/>
<path fill-rule="evenodd" clip-rule="evenodd" d="M211.14 248.256H236.071V254.271H232.331V251.995H214.88V254.271H211.14V248.256Z" fill="white"/>
<path fill-rule="evenodd" clip-rule="evenodd" d="M221.967 271.751L222.198 250.336L225.936 250.376L225.706 271.792L221.967 271.751Z" fill="white"/>
<defs>
<filter id="filter0_d_18_315" x="447.675" y="275.388" width="71.8422" height="73.0817" filterUnits="userSpaceOnUse" color-interpolation-filters="sRGB">
<feFlood flood-opacity="0" result="BackgroundImageFix"/>
<feColorMatrix in="SourceAlpha" type="matrix" values="0 0 0 0 0 0 0 0 0 0 0 0 0 0 0 0 0 0 127 0" result="hardAlpha"/>
<feOffset dy="7.23576"/>
<feGaussianBlur stdDeviation="12.6626"/>
<feComposite in2="hardAlpha" operator="out"/>
<feColorMatrix type="matrix" values="0 0 0 0 0.533333 0 0 0 0 0.945098 0 0 0 0 0.858824 0 0 0 1 0"/>
<feBlend mode="normal" in2="BackgroundImageFix" result="effect1_dropShadow_18_315"/>
<feBlend mode="normal" in="SourceGraphic" in2="effect1_dropShadow_18_315" result="shape"/>
</filter>
<linearGradient id="paint0_linear_18_315" x1="473.371" y1="0" x2="656.284" y2="778.189" gradientUnits="userSpaceOnUse">
<stop stop-color="white" stop-opacity="0.16"/>
<stop offset="1" stop-color="#C4C4C4" stop-opacity="0"/>
</linearGradient>
<linearGradient id="paint1_linear_18_315" x1="473" y1="1.98722e-05" x2="975.489" y2="362.507" gradientUnits="userSpaceOnUse">
<stop stop-color="white" stop-opacity="0.17"/>
<stop offset="1" stop-opacity="0"/>
</linearGradient>
<linearGradient id="paint2_linear_18_315" x1="62.0187" y1="186.995" x2="280.228" y2="356.816" gradientUnits="userSpaceOnUse">
<stop stop-color="#6A406E"/>
<stop offset="1" stop-color="#3438CE"/>
</linearGradient>
<linearGradient id="paint3_linear_18_315" x1="143.494" y1="134.194" x2="265.667" y2="634.367" gradientUnits="userSpaceOnUse">
<stop stop-color="white" stop-opacity="0.17"/>
<stop offset="1" stop-opacity="0"/>
</linearGradient>
<linearGradient id="paint4_linear_18_315" x1="467.687" y1="22.5874" x2="568.475" y2="333.306" gradientUnits="userSpaceOnUse">
<stop stop-color="white" stop-opacity="0.15"/>
<stop offset="1" stop-color="#C4C4C4" stop-opacity="0"/>
</linearGradient>
<linearGradient id="paint5_linear_18_315" x1="1018.43" y1="539.064" x2="501.759" y2="146.348" gradientUnits="userSpaceOnUse">
<stop stop-color="#CD3E00"/>
<stop offset="1" stop-color="#F0C631"/>
</linearGradient>
<linearGradient id="paint6_linear_18_315" x1="818.449" y1="280.346" x2="953.868" y2="773.149" gradientUnits="userSpaceOnUse">
<stop stop-color="white" stop-opacity="0.17"/>
<stop offset="1" stop-opacity="0"/>
</linearGradient>
<linearGradient id="paint7_linear_18_315" x1="818.449" y1="306.918" x2="831.519" y2="371.271" gradientUnits="userSpaceOnUse">
<stop stop-color="white" stop-opacity="0.56"/>
<stop offset="1" stop-color="#C4C4C4" stop-opacity="0"/>
</linearGradient>
<linearGradient id="paint8_linear_18_315" x1="751.722" y1="333.492" x2="780.481" y2="384.182" gradientUnits="userSpaceOnUse">
<stop stop-color="#F9C746" stop-opacity="0.52"/>
<stop offset="1" stop-color="#C4C4C4" stop-opacity="0"/>
</linearGradient>
<linearGradient id="paint9_linear_18_315" x1="816.087" y1="333.492" x2="849.083" y2="361.185" gradientUnits="userSpaceOnUse">
<stop stop-color="#84EBE5" stop-opacity="0.62"/>
<stop offset="1" stop-color="#C4C4C4" stop-opacity="0"/>
</linearGradient>
<linearGradient id="paint10_linear_18_315" x1="751.722" y1="439.784" x2="780.481" y2="490.474" gradientUnits="userSpaceOnUse">
<stop stop-color="white" stop-opacity="0.56"/>
<stop offset="1" stop-color="#C4C4C4" stop-opacity="0"/>
</linearGradient>
<linearGradient id="paint11_linear_18_315" x1="816.087" y1="439.784" x2="849.083" y2="467.478" gradientUnits="userSpaceOnUse">
<stop stop-color="#F47D9E"/>
<stop offset="1" stop-color="#C4C4C4" stop-opacity="0"/>
</linearGradient>
<linearGradient id="paint12_linear_18_315" x1="771.209" y1="386.638" x2="802.22" y2="407.46" gradientUnits="userSpaceOnUse">
<stop stop-color="#F2C87D"/>
<stop offset="1" stop-color="#C4C4C4" stop-opacity="0"/>
</linearGradient>
<linearGradient id="paint13_linear_18_315" x1="839.118" y1="386.638" x2="865.583" y2="440.687" gradientUnits="userSpaceOnUse">
<stop stop-color="white" stop-opacity="0.62"/>
<stop offset="1" stop-color="#C4C4C4" stop-opacity="0"/>
</linearGradient>
<linearGradient id="paint14_linear_18_315" x1="723.967" y1="383.981" x2="778.351" y2="391.66" gradientUnits="userSpaceOnUse">
<stop stop-color="#F37D9D"/>
<stop offset="1" stop-color="#C4C4C4" stop-opacity="0"/>
</linearGradient>
<linearGradient id="paint15_linear_18_315" x1="762.941" y1="360.064" x2="787.486" y2="416.372" gradientUnits="userSpaceOnUse">
<stop stop-color="white" stop-opacity="0.58"/>
<stop offset="1" stop-color="#C4C4C4" stop-opacity="0"/>
</linearGradient>
<linearGradient id="paint16_linear_18_315" x1="845.022" y1="360.064" x2="877.962" y2="399.69" gradientUnits="userSpaceOnUse">
<stop stop-color="white" stop-opacity="0.45"/>
<stop offset="1" stop-color="#C4C4C4" stop-opacity="0"/>
</linearGradient>
<linearGradient id="paint17_linear_18_315" x1="762.941" y1="413.21" x2="787.486" y2="469.518" gradientUnits="userSpaceOnUse">
<stop stop-color="#70D1E7"/>
<stop offset="1" stop-color="#C4C4C4" stop-opacity="0"/>
</linearGradient>
<linearGradient id="paint18_linear_18_315" x1="466.819" y1="218.026" x2="200.346" y2="298.45" gradientUnits="userSpaceOnUse">
<stop stop-color="#767799"/>
<stop offset="1" stop-color="#767799" stop-opacity="0"/>
</linearGradient>
<linearGradient id="paint19_linear_18_315" x1="501.476" y1="387.838" x2="779.619" y2="299.416" gradientUnits="userSpaceOnUse">
<stop stop-color="#767799"/>
<stop offset="1" stop-color="#767799" stop-opacity="0"/>
</linearGradient>
</defs>
</svg>
