<svg width="38" height="38" viewBox="0 0 38 38" fill="none" xmlns="http://www.w3.org/2000/svg">
<path d="M18.6001 3.1001C10.0394 3.1001 3.1001 10.0394 3.1001 18.6001C3.1001 27.1607 10.0394 34.1001 18.6001 34.1001C27.1607 34.1001 34.1001 27.1607 34.1001 18.6001C34.1001 10.0394 27.1607 3.1001 18.6001 3.1001Z" stroke="#2B2530" stroke-width="2.325" stroke-linecap="round" stroke-linejoin="round"/>
<path d="M12.3999 32.8105V21.7001L18.5999 10.8501L24.7999 21.7001V32.8105" stroke="#2B2530" stroke-width="2.325" stroke-linecap="round" stroke-linejoin="round"/>
<path d="M12.3999 21.7001C12.3999 21.7001 14.1468 23.2501 15.4999 23.2501C16.8531 23.2501 18.5999 21.7001 18.5999 21.7001C18.5999 21.7001 20.3468 23.2501 21.6999 23.2501C23.0531 23.2501 24.7999 21.7001 24.7999 21.7001" stroke="#2B2530" stroke-width="2.325" stroke-linecap="round" stroke-linejoin="round"/>
</svg>
