<svg width="547" height="138" viewBox="0 0 547 138" fill="none" xmlns="http://www.w3.org/2000/svg">
<g clip-path="url(#clip0_3_488)">
<path d="M176.401 53.6682C176.401 43.8794 166.87 33.4832 150.38 33.4832C131.861 33.4832 111.518 47.0521 108.409 74.1217C105.232 101.462 122.264 113.614 139.431 113.614C156.598 113.614 165.587 106.93 174.779 98.0197C166.87 88.0956 156.666 92.6868 154.706 93.6992C152.543 94.7788 149.772 96.2644 144.094 96.2644C137.471 96.2644 130.712 93.2942 130.712 80.9403C173.157 76.7551 176.401 63.4559 176.401 53.6682ZM155.381 55.2881C155.111 58.3254 153.895 63.5241 132.402 66.4261C136.931 50.3601 145.581 49.1452 149.569 49.1452C153.287 49.1452 155.651 52.0472 155.381 55.2881ZM83.4689 57.9204C83.4689 57.9204 74.3462 86.5428 73.6014 88.9056C73.3315 86.4757 66.6403 35.1031 66.6403 35.1031C51.0953 35.1031 42.7824 46.1739 38.3896 57.8533C38.3896 57.8533 27.3046 86.5428 26.3592 88.9727C26.2909 86.7453 24.6691 58.1911 24.6691 58.1911C23.7227 43.8783 10.6115 35.1713 0.000244141 35.1713L12.8415 113.006C29.1302 112.939 37.9158 101.935 42.5124 90.2558C42.5124 90.2558 52.3117 64.9415 52.7172 63.7937C52.7854 64.8733 59.7465 113.006 59.7465 113.006C76.1024 113.006 84.8891 102.677 89.6202 91.4036L112.532 35.1713C96.3774 35.1713 87.8628 46.1739 83.4689 57.9204ZM236.417 33.3478C226.347 33.3478 218.642 38.8161 212.154 46.8496V46.7825L217.967 0C204.584 0 193.703 11.6112 191.608 28.892L181.469 112.399C189.175 112.399 197.352 110.171 201.745 104.5C205.665 109.563 211.545 113.614 220.264 113.614C242.838 113.614 258.315 87.421 258.315 62.8484C258.18 40.436 247.298 33.3478 236.417 33.3478ZM234.322 73.5153C231.957 87.2185 224.319 96.5351 216.952 96.5351C209.518 96.5351 206.342 93.226 206.342 93.226C207.761 81.2099 208.639 73.8521 211.343 67.5067C214.046 61.1613 220.467 51.0347 227.158 51.0347C233.713 51.0347 236.688 59.7439 234.322 73.5153ZM314.682 35.1692H298.934L299.003 34.3592C300.083 24.0983 302.516 18.6983 310.559 17.8212C316.034 17.2809 318.467 14.4449 319.075 11.3405C319.549 8.91059 321.035 0.471054 321.035 0.471054C289.405 0.268565 279.47 13.9057 276.902 34.6971L276.834 35.1702H276.495C271.359 35.1702 265.682 40.9753 264.736 48.3331L264.398 51.0337H274.942L266.088 124.076L263.384 137.173C263.722 137.173 264.128 137.24 264.465 137.24C279.267 136.699 288.728 125.021 290.824 108.077L297.718 51.0337H302.652C307.517 51.0337 313.196 46.1739 314.209 38.0722L314.682 35.1692ZM396.597 33.82C378.416 33.82 361.249 47.1864 355.977 68.1802C350.706 89.1752 358.68 114.017 385.445 114.017C412.141 114.017 427.552 88.1627 427.552 66.6275C427.552 45.2276 413.02 33.82 396.597 33.82ZM403.964 72.8386C403.017 82.3566 398.827 96.8037 387.338 96.8037C375.78 96.8037 377.402 79.9268 378.551 71.8933C379.767 63.3205 384.567 51.1008 394.908 51.1008C404.166 51.1008 405.045 62.1045 403.964 72.8386ZM517.374 57.9194C517.374 57.9194 508.249 86.5418 507.506 88.9045C507.236 86.4746 500.545 35.102 500.545 35.102C485 35.102 476.687 46.1729 472.294 57.8522C472.294 57.8522 461.209 86.5418 460.264 88.9716C460.195 86.7443 458.573 58.1901 458.573 58.1901C457.627 43.8773 444.516 35.1702 433.905 35.1702L446.679 113.005C462.966 112.938 471.753 101.934 476.348 90.2548C476.348 90.2548 486.149 64.9404 486.487 63.7926C486.554 64.8722 493.515 113.005 493.515 113.005C509.872 113.005 518.658 102.676 523.389 91.4026L546.3 35.1713C530.214 35.1713 521.699 46.1729 517.374 57.9194ZM329.552 0.47212L316.304 107.2L313.601 120.364C313.938 120.364 314.344 120.432 314.682 120.432C328.942 120.23 339.081 107.74 340.973 92.0111L348.61 30.7826C350.908 12.0833 339.756 0.473185 329.552 0.473185V0.47212Z" fill="#4353FF"/>
</g>
<defs>
<clipPath id="clip0_3_488">
<rect width="546.3" height="137.48" fill="white"/>
</clipPath>
</defs>
</svg>
