<svg width="396" height="71" viewBox="0 0 396 71" fill="none" xmlns="http://www.w3.org/2000/svg">
<path d="M112.29 11H116.49V56H112.29V50.39C111.25 52.31 109.82 53.86 108 55.04C106.2 56.2 104.06 56.78 101.58 56.78C99.4 56.78 97.36 56.37 95.46 55.55C93.56 54.73 91.88 53.6 90.42 52.16C88.98 50.7 87.85 49.02 87.03 47.12C86.21 45.22 85.8 43.18 85.8 41C85.8 38.82 86.21 36.78 87.03 34.88C87.85 32.96 88.98 31.28 90.42 29.84C91.88 28.38 93.56 27.24 95.46 26.42C97.36 25.6 99.4 25.19 101.58 25.19C104.06 25.19 106.2 25.78 108 26.96C109.82 28.12 111.25 29.65 112.29 31.55V11ZM101.61 52.7C103.75 52.7 105.59 52.18 107.13 51.14C108.67 50.08 109.85 48.66 110.67 46.88C111.51 45.1 111.93 43.14 111.93 41C111.93 38.8 111.51 36.82 110.67 35.06C109.83 33.28 108.64 31.87 107.1 30.83C105.56 29.79 103.73 29.27 101.61 29.27C99.49 29.27 97.56 29.8 95.82 30.86C94.08 31.9 92.69 33.31 91.65 35.09C90.61 36.87 90.09 38.84 90.09 41C90.09 43.18 90.62 45.16 91.68 46.94C92.74 48.7 94.14 50.1 95.88 51.14C97.64 52.18 99.55 52.7 101.61 52.7ZM136.659 56.78C133.899 56.78 131.379 56.07 129.099 54.65C126.839 53.23 125.029 51.33 123.669 48.95C122.329 46.55 121.659 43.9 121.659 41C121.659 38.8 122.049 36.75 122.829 34.85C123.609 32.93 124.679 31.25 126.039 29.81C127.419 28.35 129.019 27.21 130.839 26.39C132.659 25.57 134.599 25.16 136.659 25.16C139.419 25.16 141.929 25.87 144.189 27.29C146.469 28.71 148.279 30.62 149.619 33.02C150.979 35.42 151.659 38.08 151.659 41C151.659 43.18 151.269 45.22 150.489 47.12C149.709 49.02 148.629 50.7 147.249 52.16C145.889 53.6 144.299 54.73 142.479 55.55C140.679 56.37 138.739 56.78 136.659 56.78ZM136.659 52.58C138.699 52.58 140.529 52.05 142.149 50.99C143.789 49.91 145.079 48.49 146.019 46.73C146.979 44.97 147.459 43.06 147.459 41C147.459 38.9 146.979 36.97 146.019 35.21C145.059 33.43 143.759 32.01 142.119 30.95C140.499 29.89 138.679 29.36 136.659 29.36C134.619 29.36 132.779 29.9 131.139 30.98C129.519 32.04 128.229 33.45 127.269 35.21C126.329 36.97 125.859 38.9 125.859 41C125.859 43.16 126.349 45.12 127.329 46.88C128.309 48.62 129.619 50.01 131.259 51.05C132.899 52.07 134.699 52.58 136.659 52.58ZM181.138 11H185.338V56H181.138V50.39C180.098 52.31 178.668 53.86 176.848 55.04C175.048 56.2 172.908 56.78 170.428 56.78C168.248 56.78 166.208 56.37 164.308 55.55C162.408 54.73 160.728 53.6 159.268 52.16C157.828 50.7 156.698 49.02 155.878 47.12C155.058 45.22 154.648 43.18 154.648 41C154.648 38.82 155.058 36.78 155.878 34.88C156.698 32.96 157.828 31.28 159.268 29.84C160.728 28.38 162.408 27.24 164.308 26.42C166.208 25.6 168.248 25.19 170.428 25.19C172.908 25.19 175.048 25.78 176.848 26.96C178.668 28.12 180.098 29.65 181.138 31.55V11ZM170.458 52.7C172.598 52.7 174.438 52.18 175.978 51.14C177.518 50.08 178.698 48.66 179.518 46.88C180.358 45.1 180.778 43.14 180.778 41C180.778 38.8 180.358 36.82 179.518 35.06C178.678 33.28 177.488 31.87 175.948 30.83C174.408 29.79 172.578 29.27 170.458 29.27C168.338 29.27 166.408 29.8 164.668 30.86C162.928 31.9 161.538 33.31 160.498 35.09C159.458 36.87 158.938 38.84 158.938 41C158.938 43.18 159.468 45.16 160.528 46.94C161.588 48.7 162.988 50.1 164.728 51.14C166.488 52.18 168.398 52.7 170.458 52.7ZM216.997 11H221.197V56H216.997V50.39C215.957 52.31 214.527 53.86 212.707 55.04C210.907 56.2 208.767 56.78 206.287 56.78C204.107 56.78 202.067 56.37 200.167 55.55C198.267 54.73 196.587 53.6 195.127 52.16C193.687 50.7 192.557 49.02 191.737 47.12C190.917 45.22 190.507 43.18 190.507 41C190.507 38.82 190.917 36.78 191.737 34.88C192.557 32.96 193.687 31.28 195.127 29.84C196.587 28.38 198.267 27.24 200.167 26.42C202.067 25.6 204.107 25.19 206.287 25.19C208.767 25.19 210.907 25.78 212.707 26.96C214.527 28.12 215.957 29.65 216.997 31.55V11ZM206.317 52.7C208.457 52.7 210.297 52.18 211.837 51.14C213.377 50.08 214.557 48.66 215.377 46.88C216.217 45.1 216.637 43.14 216.637 41C216.637 38.8 216.217 36.82 215.377 35.06C214.537 33.28 213.347 31.87 211.807 30.83C210.267 29.79 208.437 29.27 206.317 29.27C204.197 29.27 202.267 29.8 200.527 30.86C198.787 31.9 197.397 33.31 196.357 35.09C195.317 36.87 194.797 38.84 194.797 41C194.797 43.18 195.327 45.16 196.387 46.94C197.447 48.7 198.847 50.1 200.587 51.14C202.347 52.18 204.257 52.7 206.317 52.7ZM229.571 56.78C228.911 56.78 228.351 56.54 227.891 56.06C227.431 55.6 227.201 55.03 227.201 54.35C227.201 53.71 227.431 53.16 227.891 52.7C228.351 52.22 228.911 51.98 229.571 51.98C230.251 51.98 230.821 52.22 231.281 52.7C231.761 53.16 232.001 53.71 232.001 54.35C232.001 55.03 231.761 55.6 231.281 56.06C230.821 56.54 230.251 56.78 229.571 56.78ZM263.638 11H267.838V56H263.638V50.39C262.598 52.31 261.168 53.86 259.348 55.04C257.548 56.2 255.408 56.78 252.928 56.78C250.748 56.78 248.708 56.37 246.808 55.55C244.908 54.73 243.228 53.6 241.768 52.16C240.328 50.7 239.198 49.02 238.378 47.12C237.558 45.22 237.148 43.18 237.148 41C237.148 38.82 237.558 36.78 238.378 34.88C239.198 32.96 240.328 31.28 241.768 29.84C243.228 28.38 244.908 27.24 246.808 26.42C248.708 25.6 250.748 25.19 252.928 25.19C255.408 25.19 257.548 25.78 259.348 26.96C261.168 28.12 262.598 29.65 263.638 31.55V11ZM252.958 52.7C255.098 52.7 256.938 52.18 258.478 51.14C260.018 50.08 261.198 48.66 262.018 46.88C262.858 45.1 263.278 43.14 263.278 41C263.278 38.8 262.858 36.82 262.018 35.06C261.178 33.28 259.988 31.87 258.448 30.83C256.908 29.79 255.078 29.27 252.958 29.27C250.838 29.27 248.908 29.8 247.168 30.86C245.428 31.9 244.038 33.31 242.998 35.09C241.958 36.87 241.438 38.84 241.438 41C241.438 43.18 241.968 45.16 243.028 46.94C244.088 48.7 245.488 50.1 247.228 51.14C248.988 52.18 250.898 52.7 252.958 52.7ZM275.041 26H279.241V56H275.041V26ZM277.171 20.75C276.491 20.75 275.911 20.53 275.431 20.09C274.971 19.63 274.741 19.06 274.741 18.38C274.741 17.7 274.971 17.14 275.431 16.7C275.911 16.24 276.491 16.01 277.171 16.01C277.831 16.01 278.391 16.24 278.851 16.7C279.331 17.14 279.571 17.7 279.571 18.38C279.571 19.06 279.341 19.63 278.881 20.09C278.421 20.53 277.851 20.75 277.171 20.75ZM310.024 26H314.224V57.11C314.224 59.03 313.804 60.83 312.964 62.51C312.144 64.19 311.024 65.66 309.604 66.92C308.204 68.2 306.604 69.2 304.804 69.92C303.004 70.64 301.134 71 299.194 71C297.114 71 295.104 70.52 293.164 69.56C291.224 68.62 289.534 67.36 288.094 65.78C286.674 64.2 285.664 62.45 285.064 60.53L288.934 58.76C289.314 60.26 290.024 61.61 291.064 62.81C292.124 64.03 293.364 64.99 294.784 65.69C296.224 66.41 297.694 66.77 299.194 66.77C300.574 66.77 301.904 66.51 303.184 65.99C304.484 65.49 305.644 64.8 306.664 63.92C307.704 63.04 308.524 62.01 309.124 60.83C309.724 59.67 310.024 58.43 310.024 57.11V50.48C308.984 52.36 307.574 53.88 305.794 55.04C304.034 56.2 301.984 56.78 299.644 56.78C297.544 56.78 295.564 56.37 293.704 55.55C291.864 54.73 290.244 53.6 288.844 52.16C287.444 50.7 286.344 49.02 285.544 47.12C284.764 45.22 284.374 43.18 284.374 41C284.374 38.82 284.764 36.78 285.544 34.88C286.344 32.96 287.444 31.28 288.844 29.84C290.244 28.38 291.864 27.24 293.704 26.42C295.564 25.6 297.544 25.19 299.644 25.19C301.984 25.19 304.034 25.77 305.794 26.93C307.574 28.07 308.984 29.59 310.024 31.49V26ZM299.674 52.7C301.754 52.7 303.544 52.16 305.044 51.08C306.564 50 307.734 48.57 308.554 46.79C309.374 45.01 309.784 43.08 309.784 41C309.784 38.86 309.364 36.91 308.524 35.15C307.704 33.37 306.534 31.95 305.014 30.89C303.494 29.81 301.714 29.27 299.674 29.27C297.634 29.27 295.774 29.8 294.094 30.86C292.434 31.9 291.114 33.31 290.134 35.09C289.154 36.87 288.664 38.84 288.664 41C288.664 43.16 289.164 45.13 290.164 46.91C291.164 48.67 292.494 50.08 294.154 51.14C295.834 52.18 297.674 52.7 299.674 52.7ZM321.155 26H325.355V56H321.155V26ZM323.285 20.75C322.605 20.75 322.025 20.53 321.545 20.09C321.085 19.63 320.855 19.06 320.855 18.38C320.855 17.7 321.085 17.14 321.545 16.7C322.025 16.24 322.605 16.01 323.285 16.01C323.945 16.01 324.505 16.24 324.965 16.7C325.445 17.14 325.685 17.7 325.685 18.38C325.685 19.06 325.455 19.63 324.995 20.09C324.535 20.53 323.965 20.75 323.285 20.75ZM347.91 30.2H340.74L340.71 56H336.51L336.54 30.2H331.11V26H336.54L336.51 16.58H340.71L340.74 26H347.91V30.2ZM377.104 26H381.304V56H377.104L376.954 50.42C375.974 52.32 374.604 53.86 372.844 55.04C371.084 56.2 368.984 56.78 366.544 56.78C364.344 56.78 362.284 56.37 360.364 55.55C358.444 54.71 356.754 53.56 355.294 52.1C353.834 50.64 352.694 48.95 351.874 47.03C351.054 45.11 350.644 43.05 350.644 40.85C350.644 38.69 351.044 36.66 351.844 34.76C352.664 32.86 353.784 31.19 355.204 29.75C356.644 28.31 358.304 27.19 360.184 26.39C362.084 25.57 364.114 25.16 366.274 25.16C368.774 25.16 370.954 25.76 372.814 26.96C374.674 28.14 376.154 29.69 377.254 31.61L377.104 26ZM366.454 52.7C368.594 52.7 370.434 52.18 371.974 51.14C373.514 50.08 374.694 48.66 375.514 46.88C376.354 45.1 376.774 43.14 376.774 41C376.774 38.8 376.354 36.82 375.514 35.06C374.674 33.28 373.484 31.87 371.944 30.83C370.404 29.79 368.574 29.27 366.454 29.27C364.334 29.27 362.394 29.8 360.634 30.86C358.894 31.9 357.504 33.31 356.464 35.09C355.444 36.87 354.934 38.84 354.934 41C354.934 43.18 355.464 45.16 356.524 46.94C357.584 48.7 358.984 50.1 360.724 51.14C362.484 52.18 364.394 52.7 366.454 52.7ZM387.717 56V11H391.917V56H387.717Z" fill="#FAFAFA"/>
<circle cx="27" cy="27" r="5" fill="#FAFAFA"/>
<circle cx="43" cy="27" r="5" fill="#FAFAFA"/>
<circle cx="27" cy="43" r="5" fill="#FAFAFA"/>
<circle cx="43" cy="43" r="5" fill="#FAFAFA"/>
<circle cx="30" cy="13" r="3" fill="#FAFAFA"/>
<circle cx="42" cy="13" r="3" fill="#FAFAFA"/>
<circle cx="30" cy="2" r="2" fill="#FAFAFA"/>
<circle cx="42" cy="2" r="2" fill="#FAFAFA"/>
<circle cx="29" cy="68" r="2" fill="#FAFAFA"/>
<circle cx="41" cy="68" r="2" fill="#FAFAFA"/>
<circle cx="2" cy="29" r="2" fill="#FAFAFA"/>
<circle cx="2" cy="41" r="2" fill="#FAFAFA"/>
<circle cx="68" cy="29" r="2" fill="#FAFAFA"/>
<circle cx="68" cy="41" r="2" fill="#FAFAFA"/>
<circle cx="57" cy="29" r="3" fill="#FAFAFA"/>
<circle cx="57" cy="41" r="3" fill="#FAFAFA"/>
<circle cx="13" cy="29" r="3" fill="#FAFAFA"/>
<circle cx="13" cy="41" r="3" fill="#FAFAFA"/>
<circle cx="57" cy="57" r="3" fill="#FAFAFA"/>
<circle cx="57" cy="13" r="3" fill="#FAFAFA"/>
<circle cx="13" cy="13" r="3" fill="#FAFAFA"/>
<circle cx="13" cy="57" r="3" fill="#FAFAFA"/>
<circle cx="29" cy="57" r="3" fill="#FAFAFA"/>
<circle cx="41" cy="57" r="3" fill="#FAFAFA"/>
</svg>
