<svg width="78" height="89" viewBox="0 0 78 89" fill="none" xmlns="http://www.w3.org/2000/svg">
<g clip-path="url(#clip0_3_496)">
<path d="M67.9924 17.4055C67.9314 16.9623 67.5427 16.717 67.2216 16.69C64.8534 16.5122 62.4851 16.3358 60.1168 16.1609C60.1168 16.1609 55.405 11.4877 54.8879 10.9704C54.3704 10.4534 53.3598 10.6107 52.9676 10.726C52.9098 10.743 51.9381 11.0426 50.3308 11.5396C48.7569 7.01477 45.9791 2.85668 41.0924 2.85668C40.9575 2.85668 40.8186 2.86214 40.6797 2.87003C39.29 1.03383 37.5684 0.236084 36.0813 0.236084C24.6978 0.236084 19.2592 14.4531 17.5541 21.6777C13.1307 23.047 9.9883 24.0205 9.58692 24.1465C7.11787 24.9203 7.03979 24.998 6.71558 27.3223C6.4716 29.082 0.0112305 78.9953 0.0112305 78.9953L50.3518 88.4183L77.628 82.5232C77.628 82.5232 68.0526 17.8487 67.9924 17.4055ZM47.5485 12.3992L43.2889 13.7164C43.2904 13.4164 43.2919 13.1214 43.2919 12.7987C43.2919 9.98658 42.9012 7.72236 42.2743 5.92744C44.7923 6.24314 46.4692 9.10536 47.5485 12.3992ZM39.1508 6.48507C39.8509 8.23749 40.306 10.7524 40.306 14.1462C40.306 14.3198 40.3045 14.4786 40.303 14.6392C37.5328 15.4964 34.5226 16.4271 31.5057 17.3608C33.1997 10.8296 36.3749 7.67501 39.1508 6.48507ZM35.7687 3.28651C36.26 3.28651 36.755 3.45316 37.2287 3.77888C33.5804 5.49396 29.6699 9.81355 28.0185 18.4397L21.0647 20.5913C22.999 14.0117 27.5922 3.28651 35.7687 3.28651Z" fill="#95BF46"/>
<path d="M67.2216 16.6904C64.8535 16.5126 62.4852 16.3363 60.1168 16.1613C60.1168 16.1613 55.4051 11.4881 54.8879 10.9708C54.6944 10.7784 54.4334 10.6797 54.1605 10.6372L50.3542 88.4181L77.628 82.5236C77.628 82.5236 68.0526 17.8491 67.9925 17.4059C67.9314 16.9627 67.5428 16.7174 67.2216 16.6904Z" fill="#5E8E3E"/>
<path d="M41.0926 31.7472L37.7293 41.7421C37.7293 41.7421 34.7826 40.1709 31.1705 40.1709C25.875 40.1709 25.6086 43.4909 25.6086 44.3275C25.6086 48.8923 37.5193 50.6414 37.5193 61.3339C37.5193 69.7463 32.1786 75.1632 24.9775 75.1632C16.3361 75.1632 11.917 69.7903 11.917 69.7903L14.2308 62.1528C14.2308 62.1528 18.7733 66.049 22.6063 66.049C25.1109 66.049 26.1297 64.0789 26.1297 62.6394C26.1297 56.6849 16.358 56.4193 16.358 46.6348C16.358 38.3997 22.2745 30.4304 34.2174 30.4304C38.8192 30.4304 41.0926 31.7472 41.0926 31.7472Z" fill="white"/>
</g>
<defs>
<clipPath id="clip0_3_496">
<rect width="77.7845" height="88.6381" fill="white"/>
</clipPath>
</defs>
</svg>
