<svg width="73" height="111" viewBox="0 0 73 111" fill="none" xmlns="http://www.w3.org/2000/svg">
<g clip-path="url(#clip0_18_309)">
<path d="M18.0894 110.346C28.0748 110.346 36.1788 102.106 36.1788 91.9546V73.5637H18.0894C8.10406 73.5637 0 81.8028 0 91.9546C0 102.106 8.10406 110.346 18.0894 110.346Z" fill="#0ACF83"/>
<path d="M0 55.1726C0 45.0209 8.10406 36.7817 18.0894 36.7817H36.1788V73.5635H18.0894C8.10406 73.5635 0 65.3244 0 55.1726Z" fill="#A259FF"/>
<path d="M-0.000244141 18.3909C-0.000244141 8.23912 8.10381 0 18.0892 0H36.1786V36.7818H18.0892C8.10381 36.7818 -0.000244141 28.5427 -0.000244141 18.3909Z" fill="#F24E1E"/>
<path d="M36.1787 0H54.2681C64.2535 0 72.3575 8.23912 72.3575 18.3909C72.3575 28.5427 64.2535 36.7818 54.2681 36.7818H36.1787V0Z" fill="#FF7262"/>
<path d="M72.3575 55.1726C72.3575 65.3244 64.2535 73.5635 54.2681 73.5635C44.2828 73.5635 36.1787 65.3244 36.1787 55.1726C36.1787 45.0209 44.2828 36.7817 54.2681 36.7817C64.2535 36.7817 72.3575 45.0209 72.3575 55.1726Z" fill="#1ABCFE"/>
</g>
<defs>
<clipPath id="clip0_18_309">
<rect width="72.3576" height="110.345" fill="white"/>
</clipPath>
</defs>
</svg>
