<svg width="38" height="38" viewBox="0 0 38 38" fill="none" xmlns="http://www.w3.org/2000/svg">
<path d="M29.2175 14.57L22.63 7.98253L24.8387 5.77378C25.4329 5.17962 26.1629 4.88253 27.0289 4.88253C27.8948 4.88253 28.6243 5.17962 29.2175 5.77378L31.4262 7.98253C32.0204 8.5767 32.3175 9.30675 32.3175 10.1727C32.3175 11.0386 32.0204 11.7681 31.4262 12.3613L29.2175 14.57ZM4.64998 32.55V25.9625L11.625 18.9875L3.44873 10.7338L10.7725 3.41003L18.9875 11.6638L20.46 10.1913L27.0475 16.74L25.575 18.2125L33.7512 26.4663L26.4662 33.7513L18.2125 25.5363L11.2375 32.55H4.64998ZM13.8337 16.7788L16.7787 13.8338L14.9187 11.9738L13.0587 13.795L10.8887 11.625L12.71 9.76503L10.7337 7.82753L7.82748 10.7725L13.8337 16.7788ZM26.4275 29.3725L29.3725 26.4275L27.3962 24.49L25.575 26.3113L23.3662 24.1413L25.2262 22.2813L23.3275 20.4213L20.3825 23.3663L26.4275 29.3725Z" fill="#2B2530"/>
</svg>
