<svg width="38" height="38" viewBox="0 0 38 38" fill="none" xmlns="http://www.w3.org/2000/svg">
<path d="M30.3799 32.5499L20.6149 22.7849C19.8399 23.4049 18.9487 23.8957 17.9412 24.2574C16.9337 24.6191 15.8616 24.7999 14.7249 24.7999C11.9091 24.7999 9.5262 23.8244 7.5763 21.8735C5.6264 19.9226 4.65094 17.5397 4.6499 14.7249C4.6499 11.9091 5.62537 9.5262 7.5763 7.5763C9.52724 5.6264 11.9101 4.65094 14.7249 4.6499C17.5407 4.6499 19.9236 5.62537 21.8735 7.5763C23.8234 9.52724 24.7989 11.9101 24.7999 14.7249C24.7999 15.8616 24.6191 16.9337 24.2574 17.9412C23.8957 18.9487 23.4049 19.8399 22.7849 20.6149L32.5499 30.3799L30.3799 32.5499ZM14.7249 21.6999C16.6624 21.6999 18.3095 21.0215 19.6663 19.6648C21.0231 18.308 21.7009 16.6614 21.6999 14.7249C21.6999 12.7874 21.0215 11.1403 19.6648 9.7835C18.308 8.42674 16.6614 7.74887 14.7249 7.7499C12.7874 7.7499 11.1403 8.42829 9.7835 9.78505C8.42674 11.1418 7.74887 12.7884 7.7499 14.7249C7.7499 16.6624 8.42829 18.3095 9.78505 19.6663C11.1418 21.0231 12.7884 21.7009 14.7249 21.6999Z" fill="#2B2530"/>
</svg>
